<svg id="icons" enable-background="new 0 0 64 64" height="512" viewBox="0 0 64 64" width="512" xmlns="http://www.w3.org/2000/svg"><path d="m61.006 49.505c-.553 0-1-.447-1-1v-6.01c0-.553.447-1 1-1s1 .447 1 1v6.01c0 .553-.447 1-1 1z" fill="#f6bb42"/><path d="m47.994 58.35v-12.589c0-.553-.447-1-1-1s-1 .447-1 1v.241l-15 3.497-14.99-3.497v-.239c0-.553-.447-1-1-1s-1 .447-1 1v12.626c-.003.033-.02.063-.02.097 0 2.214 1.802 4.016 4.016 4.016.021 0 .038-.011.059-.012h25.889c.021.001.038.012.059.012 2.214 0 4.016-1.802 4.016-4.016-.002-.048-.022-.09-.029-.136z" fill="#545c66"/><path d="m44.994 15.499c0 6.98-5.119 12.76-11.81 13.81l-2.19 2.19-2.18-2.19c-6.689-1.05-11.82-6.829-11.82-13.81 0-7.73 6.271-14 14-14 7.74 0 14 6.27 14 14z" fill="#ed5565"/><path d="m61.218 41.521-29.998-7.001c-.15-.035-.305-.035-.455 0l-29.985 7.001c-.452.105-.772.509-.772.974s.32.868.772.974l29.984 7c.075.018.151.026.228.026s.152-.009.228-.026l29.998-7c.452-.105.772-.509.772-.974s-.32-.868-.772-.974z" fill="#656d78"/><path d="m63.939 55.766c.019-.066.036-.13.04-.2.002-.021.013-.039.013-.061 0-.049-.021-.09-.027-.137-.007-.046.002-.091-.011-.137l-1.986-7c-.011-.037-.036-.063-.05-.098-.026-.064-.055-.124-.094-.182-.036-.054-.076-.1-.122-.144-.044-.045-.089-.085-.143-.121-.058-.039-.117-.067-.182-.094-.034-.015-.061-.04-.098-.051-.024-.007-.049-.001-.073-.006-.068-.014-.137-.016-.208-.015-.063 0-.122.002-.183.014-.028.006-.056-.001-.084.007-.041.012-.07.04-.109.056-.057.024-.11.05-.162.084-.058.039-.107.081-.156.13-.042.043-.08.086-.114.137-.04.058-.068.118-.096.183-.014.035-.04.062-.051.099l-1.998 7c-.014.047-.005.093-.011.141-.007.046-.027.086-.027.134 0 .021.011.038.012.059.005.071.022.137.041.204.017.06.029.118.057.172.028.058.066.105.105.156.039.052.074.104.123.146.045.041.098.069.15.102.06.036.116.071.183.095.02.007.034.022.055.028.091.025.182.037.272.038h.002 3.984.002c.09-.001.181-.012.271-.038.021-.006.035-.021.055-.028.066-.023.123-.058.183-.094.053-.032.106-.062.151-.103.048-.043.084-.093.122-.145.039-.052.078-.1.106-.157.028-.054.042-.114.058-.174z" fill="#ffce54"/><path d="m43.008 58.507h-24c-.553 0-1-.447-1-1s.447-1 1-1h24c.553 0 1 .447 1 1s-.447 1-1 1z" fill="#434a54"/><g fill="#da4453"><path d="m22.987 16.491c-.256 0-.512-.098-.707-.293-.391-.391-.391-1.023 0-1.414l3-3c.391-.391 1.023-.391 1.414 0s.391 1.023 0 1.414l-3 3c-.195.196-.451.293-.707.293z"/><path d="m25.987 19.491c-.256 0-.512-.098-.707-.293l-3-3c-.391-.391-.391-1.023 0-1.414s1.023-.391 1.414 0l3 3c.391.391.391 1.023 0 1.414-.195.196-.451.293-.707.293z"/><path d="m38.994 16.491c-.256 0-.512-.098-.707-.293l-3-3c-.391-.391-.391-1.023 0-1.414s1.023-.391 1.414 0l3 3c.391.391.391 1.023 0 1.414-.195.196-.451.293-.707.293z"/><path d="m35.994 19.491c-.256 0-.512-.098-.707-.293-.391-.391-.391-1.023 0-1.414l3-3c.391-.391 1.023-.391 1.414 0s.391 1.023 0 1.414l-3 3c-.195.196-.451.293-.707.293z"/><path d="m28.989 21.493c-.124 0-.25-.022-.371-.071-.513-.205-.763-.787-.558-1.3l4.001-10.004c.205-.515.79-.762 1.3-.558.513.205.763.787.558 1.3l-4.001 10.004c-.156.392-.532.629-.929.629z"/></g></svg>